<?xml version="1.0" encoding="UTF-8"?>
<!DOCTYPE svg PUBLIC "-//W3C//DTD SVG 1.1//EN" "http://www.w3.org/Graphics/SVG/1.1/DTD/svg11.dtd">
<!-- Creator: CorelDRAW 2020 (64-Bit) -->
<svg xmlns="http://www.w3.org/2000/svg" xml:space="preserve" width="33.8666mm" height="32.1732mm" version="1.1" style="shape-rendering:geometricPrecision; text-rendering:geometricPrecision; image-rendering:optimizeQuality; fill-rule:evenodd; clip-rule:evenodd"
viewBox="0 0 3386.66 3217.32"
 xmlns:xlink="http://www.w3.org/1999/xlink"
 xmlns:xodm="http://www.corel.com/coreldraw/odm/2003">
 <defs>
  <style type="text/css">
   <![CDATA[
    .str1 {stroke:#1B273D;stroke-width:20;stroke-miterlimit:22.9256}
    .str0 {stroke:#4F6386;stroke-width:20;stroke-miterlimit:22.9256}
    .fil2 {fill:#1B273D}
    .fil3 {fill:#4F6386}
    .fil5 {fill:#857C5A}
    .fil4 {fill:#9A8255}
    .fil0 {fill:#CCCCCC}
    .fil1 {fill:white}
   ]]>
  </style>
 </defs>
 <g id="Слой_x0020_1">
  <metadata id="CorelCorpID_0Corel-Layer"/>
  <g id="_1972570514000">
   <path class="fil0 str0" d="M1645.62 2083.59c9.67,-22.27 15.19,-22.41 44.03,-42.26 18.8,-12.95 25.65,-25.2 44.3,-18.23 -10.51,14.5 -65.12,53.96 -88.33,60.49zm-754.36 47.97l214.75 363.91c391.55,-163.97 320.83,-103.86 655.71,-323.37 25.89,-16.96 54.05,-35.95 77.91,-54.57 27.95,13.09 168.2,139.82 194.06,161.53 -58.8,-5.16 -277.61,-56.7 -241.07,67.46 23.49,79.81 107.19,12.54 233.22,113.42 168.29,134.68 203.55,103.22 408.37,109.29 48.73,1.44 84.87,31.98 121.34,46.52 15.98,-13.04 22.48,-22.25 36.47,-36.44l114.39 -114.69c17.16,-18.14 138.92,-138.32 145.87,-154.59 -70.84,-78.61 -138.08,-182.48 -206.59,-270.04 -37.62,-48.07 -103.66,-122.24 -149.9,-161.45 -21.92,-18.59 -240.57,-203.08 -247.29,-219.3l-16.39 -12.65c-10.89,-13.75 13.55,-6.13 -20.17,-14.9l-15.18 -1.47c-75.9,-5.52 -121.59,69.36 -28.85,141.17 15.22,11.78 158.87,122.05 131.32,121.41 -0.53,-0.01 -2.36,0.16 -2.97,0.06 -17.86,-2.81 -160.14,-136.55 -194.58,-151.09l0.79 179.01c12.22,5.2 89.46,59.4 78.42,70.75 -4.43,2.89 7.63,9.99 -10.29,0.9l-65.04 -53.69c-10.55,24.22 -31.9,88.08 -100.59,60.39 -51.13,-20.61 -46.61,-67.39 -48.52,-129.79 -1.83,-59.62 1.21,-294.62 -9.62,-321.25l0.39 35.1 -15.62 -6.17c7.5,43.73 17.07,376.78 8.46,410.02 27.37,11.17 157.68,124.92 164.02,140.24 -23.95,-3.27 -135.1,-101.81 -162.96,-122.17 -7.3,7.59 -40.32,71.4 -103.33,32.07 -42.46,-26.52 -33.93,-71.78 -35.14,-132.22 -2.68,-133.79 -9.61,-193.95 1.27,-323.52 -40.24,0 -9.86,-2.32 -21.82,10.55 15.91,9.97 16.36,-17.73 13.2,13.78l-11.77 8.21c-3.56,85.48 5.77,175.7 4.84,261.69 -1.03,95.09 -110.34,102.73 -136.02,20.58 -26.18,14.42 -37.79,31.71 -65.39,38.24 5.24,-23.85 44.86,-45.71 66.28,-52.79 -3.88,-25.06 -10.48,-139.67 -3.4,-168.19 -8.94,4.35 -6.24,3.51 -18.71,6.94 3.88,92.35 -37.51,114.51 -114.43,83.27 -13.06,9.04 -18.44,14.79 -36.45,19.62 5.99,-24.27 -5.91,-5.97 11.69,-21.05 7.68,-6.58 12.71,-6.63 18.49,-8.94 -24.67,-31.43 -23.22,-104.17 -19.63,-147.3 6.79,-10.31 4.82,-26.41 -1.25,-21.9 -27.67,11.41 -106.32,69.98 -134.53,89.63 4.53,-15.89 136.31,-265.87 -7.03,-248.82 -60.64,7.21 -53.44,62.04 -81.37,106.34 -71.01,112.65 -130.4,98.8 -192.26,183.84 -74.48,102.39 -73.92,184.01 -103.25,272.99 -16.71,50.72 -57.54,72.87 -79.85,103.43z"/>
   <path class="fil1 str0" d="M1485.83 1377.19c1.77,6.22 5.17,200.9 3.97,218.92 -1.81,27.05 3.2,23.5 1,49.94 -3.59,43.13 -5.04,115.87 19.63,147.3l6.27 10.37c76.92,31.24 118.31,9.08 114.43,-83.27l-2.5 -15.49c5.37,-60.9 -11.87,-155.29 6.54,-178.02 7.65,12.93 7.51,12.56 7.75,42.49 0.1,12.42 -0.29,22.61 0.03,35.6 0.73,30.36 2.52,60.35 2.16,90.72l4.73 17.76c-7.08,28.52 -0.48,143.13 3.4,168.19l-0.89 14.55c25.68,82.15 134.99,74.51 136.02,-20.58 0.93,-85.99 -8.4,-176.21 -4.84,-261.69l-1.43 -21.99c11.96,-12.87 -18.42,-10.55 21.82,-10.55 -10.88,129.57 -3.95,189.73 -1.27,323.52 1.21,60.44 -7.32,105.7 35.14,132.22 63.01,39.33 96.03,-24.48 103.33,-32.07l-1.06 -18.07c8.61,-33.24 -0.96,-366.29 -8.46,-410.02 0.76,-7.43 0.61,-21.2 1.24,-25.41 3.61,-23.95 2.48,-11.71 10.58,-20.03l3.41 16.51c10.83,26.63 7.79,261.63 9.62,321.25 1.91,62.4 -2.61,109.18 48.52,129.79 68.69,27.69 90.04,-36.17 100.59,-60.39l-3.09 -17.96 -0.79 -179.01 -1.03 -253.18c15.82,21.63 28.68,49.45 43.81,71.19 35.82,51.48 29.9,30.91 53.59,62.43l13.89 9.48c33.72,8.77 9.28,1.15 20.17,14.9 13.61,4.35 12.51,8.32 16.39,12.65 137.46,-35.64 32.53,-133.25 15.33,-171.76 -73.6,-164.77 54.06,-160.85 -156,-431.7 -37.07,-47.8 -85.52,-48.89 -100.92,-190.24l-423.47 -23.23c-5.2,144.5 -118.57,391.42 -97.61,534.88z"/>
   <path class="fil2 str1" d="M365.92 2366.16c5.27,48.8 112.25,229.78 143.38,276.49 15.49,23.23 26.51,40.94 42.92,62.85 16.44,21.94 29.73,37.55 46.9,58.88 21.37,26.55 77.72,96.74 101.74,107.96 40.63,-17.21 410.01,-265.51 453.36,-283.78 -12.61,-34.38 -37.63,-58.43 -48.21,-93.09l-214.75 -363.91c-14.77,-17.57 -32.03,-48.26 -42.86,-70.42l-482.48 305.02z"/>
   <path class="fil3 str0" d="M1496.51 329.79c-0.55,72.81 -16.89,472.01 -4.71,507.43l91.64 5.09 423.47 23.23 86.32 4.45 8.87 -528.45c-93.44,-17.83 -184.59,-35.39 -296.52,-35.25l-2.49 0 -137.63 0c-7.41,0.6 -14.75,1.4 -21.97,2.44 -51.16,7.39 -103.67,8.56 -146.98,21.06z"/>
   <path class="fil2 str1" d="M2852.28 2310.03c-6.95,16.27 -128.71,136.45 -145.87,154.59l-114.39 114.69c-13.99,14.19 -20.49,23.4 -36.47,36.44l-51.35 58.64 68.93 66.78c24.72,20.39 43.72,41.31 68.32,61.04 24.42,19.58 43.67,40.97 68.31,61.05l67.82 63.8c118.79,-108.63 205.05,-219.01 287.36,-356.59l74.53 -140.68c-13.49,-7.27 -41.11,-34.97 -55.51,-46.72l-156.05 -142.29c-21.14,12.69 -37.86,37.67 -55.6,54.89 -13.97,13.58 -3.79,7.44 -20.03,14.36z"/>
   <polygon class="fil4" points="2211.94,1631.69 2198.05,1622.21 2196.76,1630.22 "/>
   <path class="fil5" d="M2248.5 1659.24c-3.88,-4.33 -2.78,-8.3 -16.39,-12.65l16.39 12.65z"/>
  </g>
 </g>
</svg>
