<?xml version="1.0" encoding="UTF-8"?>
<!DOCTYPE svg PUBLIC "-//W3C//DTD SVG 1.1//EN" "http://www.w3.org/Graphics/SVG/1.1/DTD/svg11.dtd">
<!-- Creator: CorelDRAW 2020 (64-Bit) -->
<svg xmlns="http://www.w3.org/2000/svg" xml:space="preserve" width="33.8666mm" height="32.1732mm" version="1.1" style="shape-rendering:geometricPrecision; text-rendering:geometricPrecision; image-rendering:optimizeQuality; fill-rule:evenodd; clip-rule:evenodd"
viewBox="0 0 3386.66 3217.32"
 xmlns:xlink="http://www.w3.org/1999/xlink"
 xmlns:xodm="http://www.corel.com/coreldraw/odm/2003">
 <defs>
  <style type="text/css">
   <![CDATA[
    .str0 {stroke:#CCCCCC;stroke-width:20;stroke-miterlimit:22.9256}
    .fil1 {fill:#1B273D}
    .fil0 {fill:#4F6386}
    .fil4 {fill:#CCCCCC}
    .fil3 {fill:#FFFDFD}
    .fil2 {fill:white}
   ]]>
  </style>
 </defs>
 <g id="Слой_x0020_1">
  <metadata id="CorelCorpID_0Corel-Layer"/>
  <g id="_1972566428880">
   <path class="fil0" d="M2330.57 1759.32l-1205.72 0.05c-58.51,1.8 -201.67,-12.77 -241.93,16.69 -47.51,34.75 -9.92,131.5 3.22,197.12l129.78 633.36c22.56,61.61 132.74,46.59 208.9,46.59l1012.27 0c241.1,0 190.6,6.34 247.38,-261.99 29.91,-141.38 57.36,-282.28 85.99,-423.19 13.73,-67.61 51.29,-160.97 -1.64,-194.49 -38.71,-24.5 -181.84,-12.28 -238.25,-14.14z"/>
   <path class="fil1" d="M2847.31 2650.68l-2241.02 0 54.58 313.2c178.02,73.96 1830.03,72.77 2110.05,2.89l76.39 -316.09z"/>
   <path class="fil2 str0" d="M1391.57 972.62c19.67,66.71 36.58,123.23 68.04,178.43 16.9,29.66 33.42,50.02 53.7,73.54 15.88,18.43 51.24,41.59 55.8,63.99 28.65,-11.06 102.16,80.12 246.66,26.28 39.44,-14.7 52.01,-33.49 70.66,-26.28 4.29,-21.06 43.35,-49.57 58.75,-67.44 19.59,-22.74 34.85,-42.18 50.75,-70.09 31.46,-55.2 48.37,-111.72 68.04,-178.43 28.96,-298.16 32.48,-197.73 -154.44,-284.29 -52.63,-24.36 -95.89,-47.43 -142.36,-73.92 -52.8,-30.1 -176.23,-113.99 -218.27,-157.46 -20.92,-21.61 -6.79,-17.48 -34.25,-27.56 -20.14,33.61 -43.39,60.06 -66.36,104.18 -80.57,154.88 -72.64,275.16 -56.72,439.05z"/>
   <path class="fil0" d="M1391.57 972.62c-15.92,-163.89 -23.85,-284.17 56.72,-439.05 22.97,-44.12 46.22,-70.57 66.36,-104.18 27.46,10.08 13.33,5.95 34.25,27.56 42.04,43.47 165.47,127.36 218.27,157.46 46.47,26.49 89.73,49.56 142.36,73.92 186.92,86.56 183.4,-13.87 154.44,284.29 40.6,-33.24 93.75,-179.66 110.77,-247.33 24.93,-99.15 33.87,-206.96 1.29,-303.41 -115.64,-342.25 -786.89,-341.66 -898.09,4.79 -57.55,179.3 42.08,487.36 113.63,545.95z"/>
   <path class="fil1" d="M1510.9 1446.07c-95.4,15.8 -185.73,63.33 -244.32,108.94 -28.14,21.92 -63.07,62.47 -84.32,94.02 -24.49,36.35 -38.44,67.91 -57.41,110.34l1205.72 -0.05c-20.03,-43.53 -32.43,-77.41 -59.76,-114.29 -21.74,-29.34 -54.13,-68.28 -81.81,-90.03 -57.19,-44.91 -150.99,-93.29 -244.41,-108.77l-126.52 179.27c-28.63,-46.37 -61.29,-149.05 -90.3,-184.25 -29.01,35.2 -61.67,137.88 -90.3,184.25l-126.57 -179.43z"/>
   <path class="fil3" d="M1510.9 1446.07l126.57 179.43c28.63,-46.37 61.29,-149.05 90.3,-184.25 29.01,35.2 61.67,137.88 90.3,184.25l126.52 -179.27 -41.15 -58.17c-0.77,-1.02 -2.34,-2.99 -2.98,-3.82 -0.66,-0.84 -2.6,-1.6 -3.08,-3.85 -0.48,-2.26 -2.03,-2.61 -3.11,-3.86 -52.83,19.77 -99.63,57.45 -166.5,57.46 -66.86,0.01 -113.67,-37.69 -166.5,-57.46l-14.83 19.1c-6.15,8.22 -8.94,12.01 -13.54,18.34 -10.47,14.39 -12.49,18.79 -22,32.1z"/>
   <path class="fil4" d="M1569.11 1288.58l-7.84 87.95c52.83,19.77 99.64,57.47 166.5,57.46 66.87,-0.01 113.67,-37.69 166.5,-57.46l-7.84 -87.95c-18.65,-7.21 -31.22,11.58 -70.66,26.28 -144.5,53.84 -218.01,-37.34 -246.66,-26.28z"/>
  </g>
 </g>
</svg>
